PathFileType	4	(X/Y/Z)	OpenSim_Sub05_CSStiffKnee_Magnet.trc
DataRate	CameraRate	NumFrames	NumMarkers	Units	OrigDataRate	OrigDataStartFrame	OrigNumFrames
100	100	36	8	m	100	5625	11248
Frame#	Time	torso_imu_offset_imu	pelvis_imu_offset_imu	tibia_r_imu_offset_imu	femur_r_imu_offset_imu	tibia_l_imu_offset_imu	femur_l_imu_offset_imu	toes_r_imu_offset_imu	toes_l_imu_offset_imu
				X1	Y1	Z1	X2	Y2	Z2	X3	Y3	Z3	X4	Y4	Z4	X5	Y5	Z5	X6	Y6	Z6	X7	Y7	Z7	X8		Y8	Z8	

5625	56.24000000	-0.89796418	-0.17611488	0.21863761	-0.63490675	0.13429711	-0.70234424	-0.48620058	-0.65633875	-0.03872514	-0.74988679	-0.39476974	0.15392476	-0.67500480	0.41741902	0.22120925	-0.58489125	0.27894815	0.21648201	-0.75249160	-0.13660055	-0.21550679	-0.66192692	-0.24560743	-0.39950111
5626	56.25000000	-0.89461153	-0.17503446	0.21547019	-0.63914922	0.14210495	-0.69714976	-0.48486257	-0.65595956	-0.03821917	-0.74940703	-0.39934691	0.14947227	-0.67759390	0.40428756	0.21632373	-0.58423382	0.27244449	0.22077378	-0.75884499	-0.13685392	-0.21108178	-0.65406193	-0.24566617	-0.41353654
5627	56.26000000	-0.89669907	-0.17477316	0.20845074	-0.64443251	0.14637333	-0.69539796	-0.47904312	-0.66101686	-0.04283467	-0.74982885	-0.40115150	0.14641165	-0.68774011	0.39047787	0.22111381	-0.58556073	0.26530789	0.21618588	-0.75994868	-0.14291679	-0.20377774	-0.64788200	-0.24685826	-0.41235649
5628	56.27000000	-0.89752967	-0.16954202	0.20887410	-0.64435574	0.14612021	-0.69410964	-0.47198218	-0.66530686	-0.05026938	-0.74801097	-0.40965111	0.15083736	-0.69446290	0.38029633	0.22313678	-0.59293378	0.26205681	0.21932182	-0.76211890	-0.14844144	-0.20039914	-0.63960283	-0.24883593	-0.41961364
5629	56.28000000	-0.89938174	-0.16686250	0.21227835	-0.64709976	0.15003557	-0.69320335	-0.46801903	-0.66774558	-0.05338942	-0.74717179	-0.41553433	0.14953139	-0.69590966	0.36836670	0.22066106	-0.59235703	0.25476260	0.22442847	-0.76381095	-0.15146884	-0.19481956	-0.63159479	-0.25221377	-0.43177432
5630	56.29000000	-0.89697098	-0.16444159	0.21645799	-0.64981220	0.15217339	-0.68371397	-0.46407721	-0.67323007	-0.05346406	-0.74477911	-0.41350084	0.14511095	-0.70311284	0.36117189	0.21941610	-0.59354709	0.24819065	0.21997017	-0.75951130	-0.15974470	-0.18923611	-0.62484838	-0.25552449	-0.43437484
5631	56.30000000	-0.89310533	-0.16368378	0.21495146	-0.64983018	0.15240100	-0.67597553	-0.45765387	-0.67271865	-0.05706421	-0.74316338	-0.41779619	0.13666157	-0.70269935	0.35546312	0.22305653	-0.59452111	0.24252592	0.22894374	-0.76390823	-0.16487597	-0.18498449	-0.62627446	-0.25864915	-0.43964383
5632	56.31000000	-0.90011557	-0.16230081	0.21005194	-0.65452196	0.16339248	-0.67564716	-0.45011917	-0.67672584	-0.06205973	-0.74502873	-0.42022504	0.13587766	-0.70343675	0.35253488	0.22399152	-0.59553809	0.23974169	0.22909176	-0.76761978	-0.16659290	-0.17504282	-0.62490605	-0.26261305	-0.44276121
5633	56.32000000	-0.89892026	-0.16294510	0.21232690	-0.65511573	0.16708194	-0.67139407	-0.44224934	-0.68635562	-0.06423411	-0.74397394	-0.42547177	0.14099331	-0.70798002	0.34963136	0.22497140	-0.60349554	0.23622072	0.22712385	-0.76565092	-0.16847792	-0.16409813	-0.62135311	-0.26285940	-0.44550022
5634	56.33000000	-0.89751514	-0.16123204	0.21331384	-0.65592399	0.16651024	-0.66926406	-0.43521198	-0.69207881	-0.06946057	-0.73973677	-0.42616549	0.13278973	-0.70744168	0.34412307	0.22844663	-0.60040287	0.23239782	0.22221458	-0.76425856	-0.17194567	-0.15537980	-0.61697465	-0.26529736	-0.44436755
5635	56.34000000	-0.89895743	-0.16139549	0.20599250	-0.65996969	0.17282822	-0.66073567	-0.42530151	-0.69718400	-0.07076449	-0.73998086	-0.43068602	0.12096778	-0.70465537	0.34379138	0.22732971	-0.59911049	0.22551439	0.22505119	-0.76572184	-0.17404376	-0.14309229	-0.61866530	-0.26726104	-0.44698321
5636	56.35000000	-0.89352526	-0.16245475	0.20325541	-0.66293725	0.17879799	-0.65837374	-0.41530949	-0.70274769	-0.08073961	-0.74229606	-0.42894032	0.11758990	-0.70391695	0.34348605	0.22948190	-0.59995844	0.22598763	0.23195115	-0.76687869	-0.17555166	-0.12619356	-0.62235353	-0.26246074	-0.44256572
5637	56.36000000	-0.89593051	-0.16461753	0.20150511	-0.66752931	0.18570981	-0.65571935	-0.40763217	-0.70593613	-0.08369459	-0.74469191	-0.42627595	0.10651762	-0.70211745	0.34531380	0.23514446	-0.60411438	0.22304160	0.23447473	-0.77400388	-0.18042149	-0.11360774	-0.62684484	-0.25455150	-0.43082340
5638	56.37000000	-0.89653268	-0.16711315	0.19848816	-0.66560289	0.18892704	-0.64803784	-0.39599535	-0.71355929	-0.08835854	-0.74496867	-0.42701977	0.10029251	-0.70376800	0.35176761	0.23460378	-0.59787166	0.22171958	0.23758933	-0.78038714	-0.18360477	-0.09759710	-0.63400137	-0.24570025	-0.43124655
5639	56.38000000	-0.89760825	-0.16717373	0.20037499	-0.66398664	0.19511730	-0.64159253	-0.37990606	-0.72327570	-0.09140651	-0.74814879	-0.42594585	0.10208447	-0.69866217	0.35625874	0.23736004	-0.59357121	0.22363732	0.23524009	-0.77720905	-0.18571668	-0.07403661	-0.64260144	-0.24427536	-0.41786102
5640	56.39000000	-0.89923381	-0.17178978	0.19425773	-0.66804455	0.20546826	-0.64255541	-0.36761315	-0.72530830	-0.09289029	-0.75419553	-0.42333359	0.09067247	-0.68426333	0.36589716	0.23822757	-0.59834112	0.22333014	0.23630469	-0.77901955	-0.18726787	-0.05498671	-0.65499851	-0.24555206	-0.39840988
5641	56.40000000	-0.89702677	-0.17124076	0.19282232	-0.66643015	0.21366039	-0.64612747	-0.34877007	-0.73443686	-0.09684556	-0.75826384	-0.41535767	0.08057252	-0.67726215	0.38218011	0.24240818	-0.59524832	0.23005611	0.24126401	-0.78032640	-0.18557270	-0.03438528	-0.65564615	-0.24189990	-0.39932935
5642	56.41000000	-0.89840125	-0.17605318	0.19167898	-0.66449633	0.21372491	-0.63759110	-0.32886044	-0.74493288	-0.09733370	-0.76255512	-0.40742449	0.06967095	-0.67492571	0.39063014	0.25353658	-0.59830008	0.22762916	0.24566113	-0.77957712	-0.19306009	-0.00287628	-0.66369939	-0.23673721	-0.39785923
5643	56.42000000	-0.89331023	-0.18240766	0.18441089	-0.66884140	0.21983334	-0.63642513	-0.31412166	-0.74914912	-0.10424265	-0.76796332	-0.39799823	0.05993181	-0.67183165	0.39328106	0.25354611	-0.59321646	0.22539327	0.24273634	-0.78178625	-0.19425505	0.03746752	-0.67069518	-0.23580226	-0.38847562
5644	56.43000000	-0.89347033	-0.18235906	0.18432307	-0.66541707	0.22603573	-0.63586062	-0.29639905	-0.76069763	-0.10593434	-0.77527187	-0.38705632	0.05198994	-0.66722844	0.39510186	0.25699636	-0.58495619	0.23154603	0.24540040	-0.77827626	-0.19617982	0.07419908	-0.66667314	-0.23783913	-0.39000381
5645	56.44000000	-0.89785996	-0.18291258	0.18550357	-0.66436344	0.22554361	-0.63281512	-0.27247000	-0.76418223	-0.10303375	-0.78701385	-0.37158586	0.04231781	-0.66267359	0.39889923	0.26967532	-0.58615315	0.23388998	0.25060694	-0.77130735	-0.20764203	0.11996003	-0.66386277	-0.23612173	-0.39190139
5646	56.45000000	-0.89759833	-0.18166498	0.18694177	-0.66669256	0.22823683	-0.63295664	-0.25443795	-0.77144059	-0.09850916	-0.79688663	-0.35139161	0.03035519	-0.65937333	0.40111558	0.27175485	-0.58184383	0.23868666	0.25360535	-0.76512672	-0.21443432	0.16867629	-0.66704003	-0.23490996	-0.38891850
5647	56.46000000	-0.89446885	-0.18744474	0.18611397	-0.67130670	0.22253332	-0.62792945	-0.23614521	-0.77578729	-0.08328298	-0.80473727	-0.33051156	0.02187055	-0.65640759	0.40191232	0.27090039	-0.57966428	0.24324837	0.26338254	-0.75082976	-0.22661321	0.20890558	-0.66989863	-0.23542994	-0.38619525
5648	56.47000000	-0.89443016	-0.19630429	0.18279898	-0.67466102	0.21927700	-0.62714530	-0.21299822	-0.78339899	-0.06930440	-0.81128266	-0.31065976	0.00698186	-0.65152017	0.41078976	0.27931882	-0.58051643	0.24602259	0.25902636	-0.73222773	-0.23775584	0.25153266	-0.66792260	-0.24143015	-0.39417964
5649	56.48000000	-0.89576201	-0.19814497	0.17909375	-0.67445321	0.21923656	-0.62697660	-0.19167566	-0.79200024	-0.05871815	-0.81881572	-0.28570539	-0.01131372	-0.64888886	0.41183514	0.28272307	-0.57913712	0.24299951	0.26343978	-0.72098644	-0.24811466	0.28365403	-0.67370098	-0.24162847	-0.39585056
5650	56.49000000	-0.88836794	-0.20227608	0.17879879	-0.67241840	0.21502590	-0.62770353	-0.17398464	-0.79197493	-0.03771150	-0.82974510	-0.26383543	-0.01607921	-0.64400676	0.41305969	0.28751241	-0.57656797	0.24050610	0.27724140	-0.70706837	-0.25608175	0.30855436	-0.67102686	-0.24197534	-0.38789800
5651	56.50000000	-0.88554362	-0.20908859	0.17797711	-0.67496507	0.21365847	-0.63183301	-0.15950503	-0.79867403	-0.02047734	-0.83107514	-0.24614288	-0.02745867	-0.64037922	0.42139971	0.29028056	-0.57561875	0.24828495	0.27472074	-0.69219406	-0.26246822	0.33533930	-0.67008671	-0.24042005	-0.38687745
5652	56.51000000	-0.88442847	-0.21457495	0.17615714	-0.67105470	0.21036722	-0.63421117	-0.13935075	-0.80208756	-0.01694614	-0.83893385	-0.22571678	-0.03540185	-0.64097173	0.42471908	0.29181261	-0.57649154	0.25042370	0.27972941	-0.68513387	-0.27192361	0.34477945	-0.67762007	-0.24122884	-0.38420184
5653	56.52000000	-0.88408511	-0.22466499	0.17284581	-0.66422139	0.20680417	-0.63347654	-0.12253896	-0.79958848	-0.01165512	-0.84639147	-0.20771162	-0.03775168	-0.63469175	0.43001798	0.28773801	-0.56647323	0.25468698	0.28085939	-0.68332871	-0.27453157	0.34493054	-0.68010265	-0.24711895	-0.38271220
5654	56.53000000	-0.88416396	-0.23515122	0.17826787	-0.66412435	0.20585587	-0.63418978	-0.11820452	-0.80183539	-0.01031677	-0.84892477	-0.18855386	-0.03890182	-0.62708502	0.43132076	0.28980859	-0.56273740	0.26213676	0.27761667	-0.68393918	-0.27252948	0.34278928	-0.68204635	-0.24749934	-0.37758447
5655	56.54000000	-0.88153530	-0.23893287	0.17963523	-0.66393083	0.20637697	-0.63896770	-0.12650546	-0.80086972	-0.02913943	-0.85461832	-0.17235120	-0.04379191	-0.62466768	0.43481950	0.29774849	-0.56178941	0.26680236	0.27694720	-0.69007669	-0.27332212	0.33142686	-0.68521795	-0.24722806	-0.37306578
5656	56.55000000	-0.87924397	-0.23971805	0.16938385	-0.66452733	0.20472211	-0.63916217	-0.13239514	-0.79565024	-0.04628165	-0.86373568	-0.15622223	-0.04709927	-0.62134390	0.43929501	0.29364194	-0.55579619	0.27420042	0.28271567	-0.69467104	-0.27233641	0.31776892	-0.68291822	-0.24875680	-0.36944117
5657	56.56000000	-0.87806945	-0.24686607	0.17411114	-0.66181597	0.20572435	-0.64111574	-0.13886474	-0.79292694	-0.05953560	-0.86689133	-0.13708489	-0.04628224	-0.61798473	0.44398648	0.29657286	-0.55740095	0.27864009	0.28499988	-0.70122326	-0.26938337	0.30271007	-0.68271841	-0.25664726	-0.36822491
5658	56.57000000	-0.87682062	-0.25478317	0.17814924	-0.66013091	0.20971711	-0.64732911	-0.15281316	-0.78972100	-0.07067747	-0.86785588	-0.12585148	-0.05130977	-0.61594818	0.44683732	0.30015773	-0.55633389	0.27890473	0.28327943	-0.70871880	-0.26386936	0.28135853	-0.68438376	-0.26176306	-0.36887257
5659	56.58000000	-0.87563409	-0.25981899	0.17713630	-0.65707140	0.20433896	-0.64725418	-0.16592937	-0.78598004	-0.07282404	-0.87683377	-0.11463620	-0.05463154	-0.61402456	0.45106511	0.30132097	-0.55219275	0.28109612	0.28955554	-0.72351579	-0.25866582	0.25612218	-0.68253031	-0.26706901	-0.35947006
5660	56.59000000	-0.87430314	-0.26352724	0.17229758	-0.65772124	0.20586616	-0.64070003	-0.18945150	-0.77897495	-0.07506874	-0.87722079	-0.09568859	-0.05978357	-0.61032648	0.45767287	0.30510638	-0.55160725	0.28643780	0.29183630	-0.73727730	-0.25518035	0.22781474	-0.68894774	-0.26697663	-0.35868143
